HIERARCHY
ROOT Hips
{
	OFFSET -3.958830 18.904000 13.208200
	CHANNELS 6 Xposition Yposition Zposition Zrotation Yrotation Xrotation 
	JOINT LHipJoint
	{
		OFFSET 0.000000 0.000000 0.000000
		CHANNELS 3 Zrotation Yrotation Xrotation
		JOINT LeftUpLeg
		{
			OFFSET 1.800000 -1.400000 0.085000
			CHANNELS 3 Zrotation Yrotation Xrotation
			JOINT LeftLeg
			{
				OFFSET 2.215000 -6.000000 0.000000
				CHANNELS 3 Zrotation Yrotation Xrotation
				JOINT LeftFoot
				{
					OFFSET 2.500000 -6.900000 0.000000
					CHANNELS 3 Zrotation Yrotation Xrotation
					JOINT LeftToeBase
					{
						OFFSET 0.200000 -0.500000 1.950000
						CHANNELS 3 Zrotation Yrotation Xrotation
						End Site
						{
							OFFSET 0.000000 0.000000 0.000000
						}
					}
				}
			}
		}
	}
	JOINT RHipJoint
	{
		OFFSET 0.000000 0.000000 0.000000
		CHANNELS 3 Zrotation Yrotation Xrotation
		JOINT RightUpLeg
		{
			OFFSET -1.800000 -1.400000 0.085000
			CHANNELS 3 Zrotation Yrotation Xrotation
			JOINT RightLeg
			{
				OFFSET -2.215000 -6.000000 0.000000
				CHANNELS 3 Zrotation Yrotation Xrotation
				JOINT RightFoot
				{
					OFFSET -2.500000 -6.900000 0.000000
					CHANNELS 3 Zrotation Yrotation Xrotation
					JOINT RightToeBase
					{
						OFFSET -0.200000 -0.500000 1.950000
						CHANNELS 3 Zrotation Yrotation Xrotation
						End Site
						{
							OFFSET 0.000000 0.000000 0.000000
						}
					}
				}
			}
		}
	}
	JOINT LowerBack
	{
		OFFSET 0.000000 0.000000 0.000000
		CHANNELS 3 Zrotation Yrotation Xrotation
		JOINT Spine
		{
			OFFSET -0.087000 1.940000 -0.288900
			CHANNELS 3 Zrotation Yrotation Xrotation
			JOINT Spine1
			{
				OFFSET 0.000000 1.950000 0.060000
				CHANNELS 3 Zrotation Yrotation Xrotation
				JOINT Neck
				{
					OFFSET 0.000000 0.000000 0.000000
					CHANNELS 3 Zrotation Yrotation Xrotation
					JOINT Neck1
					{
						OFFSET 0.000000 1.600000 0.340000
						CHANNELS 3 Zrotation Yrotation Xrotation
						JOINT Head
						{
							OFFSET 0.000000 1.667000 -0.240000
							CHANNELS 3 Zrotation Yrotation Xrotation
							End Site
							{
								OFFSET 0.000000 0.000000 0.000000
							}
						}
					}
				}
				JOINT LeftShoulder
				{
					OFFSET 0.000000 0.000000 0.000000
					CHANNELS 3 Zrotation Yrotation Xrotation
					JOINT LeftArm
					{
						OFFSET 2.700000 1.550000 -0.730000
						CHANNELS 3 Zrotation Yrotation Xrotation
						JOINT LeftForeArm
						{
							OFFSET 5.450000 0.000000 0.000000
							CHANNELS 3 Zrotation Yrotation Xrotation
							JOINT LeftHand
							{
								OFFSET 3.450000 0.000000 0.000000
								CHANNELS 3 Zrotation Yrotation Xrotation
								JOINT LeftHandIndex1
								{
									OFFSET 0.750000 0.000000 0.000000
									CHANNELS 3 Zrotation Yrotation Xrotation
									End Site
									{
										OFFSET 0.000000 0.000000 0.000000
									}
								}
							}
						}
					}
				}
				JOINT RightShoulder
				{
					OFFSET 0.000000 0.000000 0.000000
					CHANNELS 3 Zrotation Yrotation Xrotation
					JOINT RightArm
					{
						OFFSET -2.700000 1.550000 -0.730000
						CHANNELS 3 Zrotation Yrotation Xrotation
						JOINT RightForeArm
						{
							OFFSET -5.450000 0.000000 0.000000
							CHANNELS 3 Zrotation Yrotation Xrotation
							JOINT RightHand
							{
								OFFSET -3.450000 0.000000 0.000000
								CHANNELS 3 Zrotation Yrotation Xrotation
								JOINT RightHandIndex1
								{
									OFFSET -0.750000 0.000000 0.000000
									CHANNELS 3 Zrotation Yrotation Xrotation
									End Site
									{
										OFFSET 0.000000 0.000000 0.000000
									}
								}
							}
						}
					}
				}
			}
		}
	}
}
MOTION
Frames: 9
Frame Time: 0.016667
1.906420 16.781090 -4.520690 6.499349 16.832168 0.915587 -14.690933 10.932396 4.211513 -8.399824 -7.305809 -34.518043 -3.099966 2.817159 8.899486 -0.521796 1.495931 3.969339 0.164420 0.111830 0.117700 18.877277 -11.220768 3.182916 -3.717809 5.215843 -20.885806 13.576480 -16.396003 49.623634 -1.211025 -8.784179 1.267282 0.118300 0.039220 0.027240 -5.517476 2.168671 -8.460391 21.471365 0.268407 25.359363 -4.217551 3.451683 8.106325 1.517528 3.574827 -5.762617 7.165290 -9.671410 46.577704 0.958720 -8.232160 -2.792670 -5.349045 15.007574 0.228621 -37.653495 2.626912 2.169436 138.907945 -59.433722 -119.517339 -3.575096 3.584166 0.116800 0.007030 0.003040 0.031000 2.710706 -14.288978 2.527851 59.244057 8.139400 -6.451946 151.331394 75.594881 135.877816 1.950841 -1.414371 -0.049850 0.118580 -0.007360 -0.030120 
1.936880 16.700770 -4.603980 7.185281 17.602818 2.227467 -14.695384 10.935092 4.290208 -8.105293 -7.361677 -35.152723 -3.470786 2.565662 6.056937 -0.488787 1.336756 4.024843 0.143070 0.086850 0.086470 18.870140 -11.246356 3.066953 -4.222327 4.679207 -20.885752 13.011140 -15.761918 48.035071 -1.112655 -8.423259 1.380665 0.080960 0.034950 0.026130 -5.513835 2.103198 -8.436887 21.833054 0.005767 24.734697 -5.203736 3.310231 6.648769 1.189555 3.419581 -5.560866 6.343177 -9.732318 46.954120 2.371930 -8.937450 -1.646360 -6.440283 14.562214 0.725886 -39.387776 3.190597 1.879211 139.923265 -56.123270 -116.360619 -3.563525 3.541910 0.112670 -0.008750 0.004780 0.036080 3.993203 -14.197073 1.391324 60.065777 6.927185 -7.001679 104.409561 79.188993 78.295104 3.831390 3.019443 -0.030390 0.089110 -0.009050 -0.013540 
1.953430 16.566310 -4.707870 7.691604 18.092995 3.618070 -14.647228 10.883873 4.350522 -6.462748 -7.190852 -36.008042 -3.898466 2.181317 1.728260 -0.491205 1.262146 4.054681 0.136060 0.074450 0.079590 18.911976 -11.301444 2.973302 -4.556060 4.163891 -21.069586 12.446895 -15.368552 46.877941 -1.046958 -8.145776 1.463123 0.068840 0.030120 0.019140 -5.642936 2.172805 -8.460854 23.043676 -0.356024 24.018296 -6.697387 3.384294 5.346834 0.739256 2.751062 -5.076059 4.257276 -9.588769 46.676025 3.303940 -9.455690 -2.046540 -9.025858 13.860718 0.306545 -39.055184 1.245970 2.475248 139.808913 -52.921965 -111.203801 -3.570730 3.425411 0.131810 -0.026610 0.011380 0.033270 7.210250 -13.502419 1.064332 60.398673 4.107057 -4.308162 66.772047 77.032815 41.055343 2.784907 -1.533764 -0.033780 0.091980 -0.004170 -0.014000 
1.948990 16.410620 -4.819630 8.310356 17.376964 5.682415 -14.640015 10.771894 4.441796 -4.033310 -7.031800 -37.971110 -3.368241 1.850096 -1.487008 -0.456511 1.266490 4.049953 0.114690 0.054970 0.055440 18.931237 -11.188017 3.016235 -5.050484 4.575853 -23.035742 12.343367 -15.286133 46.872163 -1.009708 -8.079794 1.483408 0.045900 0.039060 0.019830 -5.626740 2.147331 -8.559878 22.617094 -0.092627 23.379575 -7.775769 3.753891 2.952063 0.480418 2.376534 -4.432650 3.076754 -9.426098 45.486866 3.738400 -9.563720 -1.563660 -11.482633 14.045367 0.058368 -40.461983 0.733052 2.787237 141.785244 -49.558087 -109.346998 -3.559364 3.414979 0.120880 -0.021570 0.004590 0.034770 9.749923 -13.607283 -0.027837 61.346817 3.166160 -8.826948 45.352826 62.855737 21.046783 2.439797 -1.822141 -0.026200 0.079810 0.000650 -0.004180 
1.963750 16.283570 -4.907540 8.297702 16.926552 7.357085 -14.628864 10.628877 4.451961 -0.620442 -6.422786 -39.368794 -2.683731 1.662987 -3.910382 -0.421442 1.419089 3.992374 0.095720 0.030460 0.045380 18.963142 -10.982375 3.174881 -5.791720 5.377586 -25.202246 14.384785 -16.101722 46.287658 -1.018752 -8.174761 1.442527 0.032640 0.049030 0.023970 -5.637380 2.145228 -8.666522 22.962940 0.123881 22.337421 -8.874882 4.236819 0.458211 0.776710 2.175834 -3.662341 2.487669 -9.756215 44.106137 3.326660 -9.820930 -1.075000 -15.391923 13.895490 -0.339708 -42.393769 0.838350 3.298898 145.844221 -44.743163 -108.879902 -3.529503 3.443581 0.109300 -0.010700 -0.006230 0.030440 12.654943 -13.474812 -1.363876 60.430734 2.702672 -10.670407 30.026091 48.508272 9.256670 2.450297 -1.602291 -0.028000 0.074650 0.010150 -0.001880 
1.946440 16.216250 -4.985140 8.116547 16.644930 8.363799 -14.626467 10.538648 4.478606 3.409188 -5.712682 -39.724294 -3.039516 1.617357 -5.335127 -0.377963 1.697375 3.884036 0.080860 0.004910 0.034760 18.980021 -10.776338 3.312295 -5.810962 6.093214 -27.299208 15.256205 -16.538327 46.436253 -1.027094 -8.256199 1.410121 0.022830 0.054350 0.021750 -5.623454 2.040402 -8.788640 23.204616 0.105532 22.015754 -10.000677 4.505317 -2.165220 0.893044 1.901266 -3.027992 1.581147 -9.928333 44.235063 3.044200 -10.247600 -0.037770 -18.821183 13.467517 -1.006180 -42.113326 -0.768275 4.454849 147.247013 -42.138007 -106.513769 -3.515422 3.423131 0.105490 -0.005150 -0.019830 0.026060 15.442630 -13.061249 -2.444522 59.251984 1.441503 -10.992533 18.416082 33.189688 2.656656 2.533201 -1.355299 -0.034730 0.068960 0.020890 -0.004190 
1.921200 16.160500 -5.025420 8.149554 16.555186 9.034284 -14.660476 10.572179 4.455364 7.426405 -5.053818 -39.789891 -3.213716 1.870581 -3.917117 -0.328154 1.942726 3.792937 0.030650 -0.051890 -0.019990 18.960931 -10.577767 3.409515 -6.083186 6.411373 -29.089026 15.463999 -17.242597 47.652509 -1.054381 -8.514497 1.339889 -0.008630 0.102320 0.009110 -5.521507 1.689315 -8.854668 22.028305 -0.171103 21.258875 -9.901502 4.278051 -2.753102 0.419115 1.316480 -3.334032 -0.202275 -9.716206 44.300467 3.535550 -11.162080 1.852490 -17.700370 12.768020 -0.646892 -44.715461 -2.663890 6.176436 148.343868 -39.844186 -104.466330 -3.498553 3.420828 0.082390 0.015570 -0.056790 0.031790 15.152203 -12.099500 -2.768114 59.784902 0.764561 -10.185566 9.996866 19.278103 -0.214518 2.653586 -1.182460 -0.049490 0.080810 0.046510 0.015560 
1.890170 16.169020 -5.072490 8.243282 15.336319 9.404338 -14.686351 10.772594 4.309788 10.435145 -4.319447 -39.528445 -1.640744 2.270864 -0.694940 -0.292634 2.058684 3.747473 -0.019250 -0.108820 -0.065470 18.937831 -10.489613 3.490000 -5.694305 6.686221 -30.722938 13.904178 -17.020469 49.216858 -1.037386 -8.603546 1.325109 -0.044520 0.136170 -0.001460 -5.428270 1.319351 -8.829109 21.071670 -0.504166 20.681927 -10.763310 3.998859 -2.585538 0.166925 0.247829 -4.083601 -2.915616 -9.015871 44.085043 2.896420 -11.454390 4.050710 -15.665938 11.416924 -0.170537 -46.210613 -5.816947 8.047909 147.366661 -37.607226 -98.687936 -3.499592 3.390263 0.054450 0.036180 -0.089140 0.037460 13.499477 -10.355996 -1.971461 61.498435 -0.680223 -9.970737 5.172210 10.547687 -0.817454 2.755248 -1.128692 -0.058800 0.079810 0.062530 0.030910 
1.840320 16.217870 -5.085490 8.561065 13.815380 9.361110 -14.712025 11.114178 4.088214 13.443094 -3.486351 -38.001445 -1.026682 2.854351 3.444455 -0.259278 2.342605 3.644122 -0.081040 -0.178470 -0.129690 18.887822 -10.516512 3.477945 -4.846919 6.590201 -30.612135 12.575404 -16.181059 48.918761 -0.943131 -8.374050 1.412392 -0.076480 0.200310 -0.005750 -5.304629 0.916919 -8.715842 19.292290 -1.044310 20.691818 -11.735128 3.228458 -2.842687 -0.272349 -0.673258 -4.239015 -5.024957 -7.652831 42.698222 3.442770 -11.514980 5.470530 -14.148792 11.261357 -0.142229 -43.393331 -8.173953 9.629396 146.642006 -34.433611 -90.248854 -3.548635 3.369138 0.023620 0.072220 -0.139470 0.039960 12.812972 -10.239743 -1.609594 61.785195 -3.366850 -10.969889 2.292015 7.286503 -0.856389 2.796669 -1.102087 -0.081530 0.087700 0.098140 0.048310 
